<?xml version="1.0" standalone="no"?><!DOCTYPE svg PUBLIC "-//W3C//DTD SVG 1.1//EN" "http://www.w3.org/Graphics/SVG/1.1/DTD/svg11.dtd"><svg t="1670376495535" class="icon" viewBox="0 0 1024 1024" version="1.1" xmlns="http://www.w3.org/2000/svg" p-id="2986" xmlns:xlink="http://www.w3.org/1999/xlink" width="200" height="200"><path d="M366.08 984.576c-13.824 0-26.624-8.704-31.744-22.016l-144.384-386.048L61.44 224.256c-7.68-21.504-6.656-44.544 3.072-65.024s26.624-35.84 48.128-43.008c96.768-33.792 304.128-41.984 441.856 47.616 218.624 142.336 338.432-3.584 343.552-9.728 9.216-11.264 24.064-15.872 37.888-10.752 13.824 4.608 23.04 17.92 23.04 32.256 0 8.192-1.536 205.824-129.024 313.344-69.632 58.368-161.28 78.336-272.896 59.392-121.856-20.48-236.544 31.744-283.648 57.856l124.416 332.8c6.656 17.92-2.56 37.376-19.968 44.032-3.584 1.024-7.68 1.536-11.776 1.536zM275.456 160.768c-55.296 0-105.984 7.68-140.288 19.456-5.12 2.048-7.68 5.632-8.704 7.68-1.024 2.048-2.56 6.656-0.512 12.288l123.904 340.48c59.392-31.232 183.808-83.456 319.488-60.416 91.136 15.36 164.352 0.512 217.6-44.544 58.368-49.152 84.48-125.952 95.744-183.296-72.192 42.496-197.632 76.288-364.544-32.256C450.56 177.664 357.888 160.768 275.456 160.768z" p-id="2987"></path></svg>