<?xml version="1.0" standalone="no"?><!DOCTYPE svg PUBLIC "-//W3C//DTD SVG 1.1//EN" "http://www.w3.org/Graphics/SVG/1.1/DTD/svg11.dtd"><svg t="1670376183395" class="icon" viewBox="0 0 1024 1024" version="1.1" xmlns="http://www.w3.org/2000/svg" p-id="1828" xmlns:xlink="http://www.w3.org/1999/xlink" width="200" height="200"><path d="M98 100h50v826.9H98z" fill="#999999" p-id="1829"></path><path d="M98 877h830v50H98zM892 98.4L782.3 161l138.4 60.1z" fill="#999999" p-id="1830"></path><path d="M590.2 714.8L357.5 459 139.9 658.4l-33.8-36.9 254.6-233.3 220.2 242.1 261.6-479.1 43.4 24.8z" fill="#999999" p-id="1831"></path><path d="M356.1 434m-50 0a50 50 0 1 0 100 0 50 50 0 1 0-100 0Z" fill="#999999" p-id="1832"></path><path d="M586.1 665.1m-50 0a50 50 0 1 0 100 0 50 50 0 1 0-100 0Z" fill="#999999" p-id="1833"></path></svg>