<?xml version="1.0" standalone="no"?><!DOCTYPE svg PUBLIC "-//W3C//DTD SVG 1.1//EN" "http://www.w3.org/Graphics/SVG/1.1/DTD/svg11.dtd"><svg t="1670375993960" class="icon" viewBox="0 0 1024 1024" version="1.1" xmlns="http://www.w3.org/2000/svg" p-id="798" xmlns:xlink="http://www.w3.org/1999/xlink" width="200" height="200"><path d="M861.52533333 745.01688889v21.70940681h-223.46319644c-36.00110933 0-74.25471525 22.87449125-90.91542281 54.40944355L512 887.54555259l-35.14671408-66.44864948c-16.66070755-31.49611615-54.91431348-54.37060741-90.91542281-54.37060741H162.47466667V201.31081482h699.05066666v543.70607407z m6.44680059-621.37837037H156.02786608C116.7645203 123.63851852 84.80237037 156.99876978 84.80237037 197.97090608v572.09529837c0 40.9721363 32.03982222 74.33238755 71.3808403 74.33238755h229.75465244c7.18468741 0 19.06854875 6.95167052 22.29194904 13.04894578l46.17618015 87.34249719 3.53408948 5.51473303c13.5538157 17.63161125 33.24374282 27.72900978 54.05991822 27.72900978 20.81617541 0 40.50610252-10.09739852 54.05991822-27.72900978l49.71026963-92.85723022c2.99038341-5.59240533 14.52471941-13.04894578 22.29194904-13.04894578h229.94883319c39.26334578 0 71.18665955-33.36025125 71.18665955-74.33238755V197.97090608C939.19762963 156.99876978 907.2354797 123.63851852 867.97213392 123.63851852z" p-id="799"></path><path d="M298.40118518 434.3277037c-14.99075318 0-28.50573275 5.82542222-38.83614815 15.10726163A57.86586075 57.86586075 0 0 0 240.14696297 492.58192592c0 17.20441363 7.57304889 32.46701985 19.41807406 43.1469606a57.86586075 57.86586075 0 0 0 38.83614815 15.10726163 58.25422222 58.25422222 0 0 0 0-116.50844445M725.59881482 434.3277037a58.25422222 58.25422222 0 0 0 0 116.50844445c14.99075318 0 28.50573275-5.82542222 38.83614815-15.10726163 11.84502518-10.67994075 19.41807408-25.94254697 19.41807406-43.1469606a57.86586075 57.86586075 0 0 0-19.41807406-43.14696059 57.86586075 57.86586075 0 0 0-38.83614815-15.10726163M512 434.3277037c-14.99075318 0-28.50573275 5.82542222-38.83614815 15.10726163a57.86586075 57.86586075 0 0 0-19.41807407 43.14696059c0 17.20441363 7.57304889 32.46701985 19.41807407 43.1469606A57.86586075 57.86586075 0 0 0 512 550.83614815c14.99075318 0 28.50573275-5.82542222 38.83614815-15.10726163 11.84502518-10.67994075 19.41807408-25.94254697 19.41807407-43.1469606a57.86586075 57.86586075 0 0 0-19.41807407-43.14696059A57.86586075 57.86586075 0 0 0 512 434.3277037" p-id="800"></path></svg>