<?xml version="1.0" standalone="no"?><!DOCTYPE svg PUBLIC "-//W3C//DTD SVG 1.1//EN" "http://www.w3.org/Graphics/SVG/1.1/DTD/svg11.dtd"><svg t="1670376171434" class="icon" viewBox="0 0 1024 1024" version="1.1" xmlns="http://www.w3.org/2000/svg" p-id="1266" xmlns:xlink="http://www.w3.org/1999/xlink" width="200" height="200"><path d="M867.027899 125.97411 670.695349 125.97411 670.695349 89.843214c0-16.954137-13.745049-30.699186-30.699186-30.699186s-30.699186 13.745049-30.699186 30.699186l0 36.130895L415.738609 125.97411 415.738609 89.843214c0-16.954137-13.745049-30.699186-30.699186-30.699186s-30.699186 13.745049-30.699186 30.699186l0 36.130895L160.478971 125.97411c-16.954137 0-30.699186 13.745049-30.699186 30.699186L129.779785 930.433998c0 16.954137 13.745049 30.699186 30.699186 30.699186l706.549951 0c16.954137 0 30.699186-13.745049 30.699186-30.699186L897.728108 156.673296C897.727085 139.718135 883.983059 125.97411 867.027899 125.97411zM354.340237 187.372481l0 35.905768c0 16.954137 13.745049 30.699186 30.699186 30.699186s30.699186-13.745049 30.699186-30.699186l0-35.905768 193.557344 0 0 35.905768c0 16.954137 13.745049 30.699186 30.699186 30.699186s30.699186-13.745049 30.699186-30.699186l0-35.905768 165.633365 0 0 108.648512L191.178157 296.020994 191.178157 187.372481 354.340237 187.372481zM191.178157 899.734812 191.178157 357.419366l645.151579 0L836.329736 899.734812 191.178157 899.734812z" p-id="1267"></path><path d="M367.464139 468.474694l-99.414197 0c-8.010441 0-14.503319 6.493901-14.503319 14.503319l0 75.953879c0 8.010441 6.493901 14.503319 14.503319 14.503319l99.414197 0c8.010441 0 14.503319-6.493901 14.503319-14.503319l0-75.953879C381.967458 474.967572 375.47458 468.474694 367.464139 468.474694z" p-id="1268"></path><path d="M561.364291 468.474694l-99.414197 0c-8.010441 0-14.503319 6.493901-14.503319 14.503319l0 75.953879c0 8.010441 6.492878 14.503319 14.503319 14.503319l99.414197 0c8.010441 0 14.503319-6.493901 14.503319-14.503319l0-75.953879C575.86761 474.967572 569.374732 468.474694 561.364291 468.474694z" p-id="1269"></path><path d="M755.264443 468.474694l-99.414197 0c-8.010441 0-14.503319 6.493901-14.503319 14.503319l0 75.953879c0 8.010441 6.493901 14.503319 14.503319 14.503319l99.414197 0c8.010441 0 14.503319-6.493901 14.503319-14.503319l0-75.953879C769.768785 474.967572 763.274884 468.474694 755.264443 468.474694z" p-id="1270"></path><path d="M367.464139 658.779971l-99.414197 0c-8.010441 0-14.503319 6.493901-14.503319 14.503319l0 75.953879c0 8.010441 6.493901 14.503319 14.503319 14.503319l99.414197 0c8.010441 0 14.503319-6.493901 14.503319-14.503319l0-75.953879C381.967458 665.272849 375.47458 658.779971 367.464139 658.779971z" p-id="1271"></path><path d="M561.364291 658.779971l-99.414197 0c-8.010441 0-14.503319 6.493901-14.503319 14.503319l0 75.953879c0 8.010441 6.492878 14.503319 14.503319 14.503319l99.414197 0c8.010441 0 14.503319-6.493901 14.503319-14.503319l0-75.953879C575.86761 665.272849 569.374732 658.779971 561.364291 658.779971z" p-id="1272"></path><path d="M755.264443 658.779971l-99.414197 0c-8.010441 0-14.503319 6.493901-14.503319 14.503319l0 75.953879c0 8.010441 6.493901 14.503319 14.503319 14.503319l99.414197 0c8.010441 0 14.503319-6.493901 14.503319-14.503319l0-75.953879C769.768785 665.272849 763.274884 658.779971 755.264443 658.779971z" p-id="1273"></path></svg>